<?xml version="1.0" encoding="utf-8"?>
<!-- Generator: Adobe Illustrator 21.0.0, SVG Export Plug-In . SVG Version: 6.00 Build 0)  -->
<svg version="1.1" id="图层_1" xmlns="http://www.w3.org/2000/svg" xmlns:xlink="http://www.w3.org/1999/xlink" x="0px" y="0px"
	 viewBox="0 0 242.7 62" style="enable-background:new 0 0 242.7 62;" xml:space="preserve">
<g>
	<path d="M24.3,44.3c-1.2,1.1-2.4,2-3.6,2.6c-1.2,0.7-2.3,1.2-3.4,1.6c-1.1,0.4-2.2,0.7-3.3,0.8c-1.1,0.1-2.2,0.2-3.3,0.2
		c-1.5,0-2.9-0.2-4.2-0.7c-1.3-0.5-2.4-1.1-3.4-2c-0.9-0.8-1.7-1.9-2.2-3.1c-0.5-1.2-0.8-2.5-0.8-4c0-3.9,1.7-7,5.1-9.2
		c3.4-2.2,8.4-3.3,15.2-3.3h4.1c0-1.5-0.1-2.9-0.3-4.2c-0.2-1.3-0.6-2.4-1.2-3.3c-0.7-0.9-1.6-1.7-2.9-2.2c-1.3-0.5-3-0.8-5.2-0.8
		c-3.2,0-5.7,0.5-7.3,1.5c-1.6,1-2.6,2.5-2.9,4.6H1c0.4-3.3,1.6-5.7,3.8-7.3s5.5-2.4,9.8-2.4c2.4,0,4.4,0.3,6.1,0.9
		c1.7,0.6,3,1.4,4.1,2.6c1.1,1.1,1.8,2.5,2.3,4.1c0.5,1.6,0.7,3.4,0.7,5.4v22.5h-3.6V44.3z M24.3,31h-5.4c-5.2,0-9,0.7-11.5,2.2
		c-2.5,1.5-3.8,3.6-3.8,6.4c0,2,0.8,3.6,2.4,4.8c1.6,1.1,3.8,1.7,6.6,1.7c1.2,0,2.4-0.2,3.5-0.6c1.1-0.4,2.2-0.9,3.2-1.4
		c1-0.6,1.9-1.3,2.8-2c0.8-0.7,1.6-1.4,2.2-2.1V31z"/>
	<path d="M64,18.5L40.1,45.2h25v3.6H36.4v-4.2l23.5-26.7H37.7v-3.6H64V18.5z"/>
	<path d="M86.7,13.4c2.3,0,4.5,0.4,6.4,1.2c1.9,0.8,3.5,2,4.9,3.6s2.4,3.5,3.1,5.7c0.7,2.2,1.1,4.8,1.1,7.6c0,2.9-0.4,5.4-1.1,7.7
		c-0.7,2.3-1.8,4.2-3.1,5.7c-1.3,1.6-3,2.7-4.9,3.6c-1.9,0.8-4,1.2-6.3,1.2s-4.4-0.4-6.3-1.2c-1.9-0.8-3.5-2-4.8-3.5
		c-1.3-1.6-2.4-3.5-3.1-5.7c-0.7-2.3-1.1-4.8-1.1-7.7c0-2.8,0.4-5.4,1.1-7.6c0.7-2.2,1.8-4.1,3.1-5.7c1.3-1.5,3-2.7,4.9-3.5
		C82.3,13.8,84.4,13.4,86.7,13.4z M86.7,46.1c1.8,0,3.3-0.3,4.8-0.9c1.4-0.6,2.7-1.5,3.7-2.8c1-1.2,1.8-2.8,2.4-4.6
		c0.6-1.8,0.9-4,0.9-6.4c0-2.4-0.3-4.5-0.9-6.3c-0.6-1.8-1.4-3.3-2.4-4.5c-1-1.2-2.3-2.1-3.7-2.7c-1.4-0.6-3-0.9-4.8-0.9
		c-1.8,0-3.4,0.3-4.8,0.9c-1.4,0.6-2.7,1.5-3.7,2.7c-1,1.2-1.8,2.7-2.4,4.5C75.2,26.9,75,29,75,31.4c0,2.4,0.3,4.6,0.8,6.4
		s1.4,3.4,2.4,4.6c1,1.2,2.3,2.2,3.7,2.8C83.4,45.8,85,46.1,86.7,46.1z"/>
	<path d="M114.8,19.4c1.2-1.4,2.3-2.4,3.4-3.2c1.1-0.8,2.2-1.4,3.2-1.8c1.1-0.4,2.1-0.7,3-0.8c0.9-0.1,1.8-0.2,2.7-0.2
		c7.1,0,10.6,4.2,10.6,12.6v22.8h-3.6V26.2c0-1.6-0.1-3-0.4-4.2c-0.3-1.2-0.7-2.1-1.4-2.9c-0.6-0.8-1.5-1.3-2.5-1.7
		s-2.3-0.6-3.8-0.6c-2,0-3.9,0.6-5.8,1.7c-1.9,1.2-3.7,2.8-5.6,4.9v25.2h-3.6V14.2h3.6V19.4z"/>
	<path d="M175.5,46.7c0,2.8-0.3,5.1-0.9,7.1c-0.6,1.9-1.5,3.5-2.6,4.7c-1.2,1.2-2.6,2.1-4.4,2.7c-1.8,0.6-3.8,0.8-6.2,0.8
		c-2,0-3.7-0.2-5.3-0.6c-1.6-0.4-2.9-1-4-1.8c-1.1-0.8-2-1.8-2.6-3c-0.6-1.2-1-2.5-1.1-4.1h3.6c0.1,2,1,3.6,2.5,4.5
		c1.5,1,3.8,1.4,6.9,1.4c1.8,0,3.3-0.2,4.7-0.6s2.4-1.1,3.3-2.1c0.9-1,1.6-2.3,2-3.9c0.5-1.6,0.7-3.6,0.7-5.9v-2.2
		c-1.2,1.4-2.2,2.4-3.3,3.2c-1,0.8-2,1.4-3,1.8c-0.9,0.4-1.9,0.7-2.7,0.8c-0.9,0.1-1.7,0.2-2.6,0.2c-2.2,0-4.1-0.4-5.7-1.3
		c-1.7-0.9-3.1-2.1-4.2-3.6c-1.1-1.6-2-3.4-2.6-5.6c-0.6-2.2-0.9-4.6-0.9-7.3c0-2.8,0.3-5.4,1-7.7s1.7-4.2,2.9-5.8
		c1.2-1.6,2.7-2.8,4.4-3.6c1.7-0.8,3.5-1.3,5.4-1.3c0.8,0,1.7,0.1,2.6,0.2c0.9,0.1,1.8,0.3,2.8,0.6c0.9,0.3,1.9,0.7,2.9,1.3
		s2,1.2,2.9,2v-3.2h3.6V46.7z M171.9,21.9c-1.6-1.7-3.3-2.9-5-3.7c-1.7-0.8-3.7-1.2-5.8-1.2c-1.6,0-3,0.3-4.3,0.9
		c-1.3,0.6-2.4,1.5-3.3,2.8c-0.9,1.2-1.6,2.8-2.1,4.6c-0.5,1.9-0.8,4-0.8,6.5c0,4.7,0.9,8.2,2.7,10.7c1.8,2.4,4.3,3.6,7.6,3.6
		c2.1,0,4.1-0.6,5.9-1.8c1.8-1.2,3.5-2.9,5.2-5.2V21.9z"/>
	<path d="M206.3,49.6c-2.9,0-5.4-0.3-7.5-0.9c-2.1-0.6-3.8-1.4-5.1-2.5c-1.4-1-2.4-2.3-3.2-3.6c-0.8-1.4-1.4-2.9-1.8-4.5
		c-0.4-1.6-0.7-3.2-0.8-4.9c-0.1-1.7-0.2-3.3-0.2-4.9V0h3.6v28.2c0,3.7,0.3,6.7,1,9.1c0.7,2.3,1.6,4.1,2.9,5.5
		c1.3,1.3,2.9,2.2,4.7,2.7c1.9,0.5,4,0.7,6.4,0.7c2.4,0,4.6-0.2,6.5-0.7c1.9-0.5,3.5-1.4,4.7-2.7c1.3-1.3,2.2-3.1,2.9-5.5
		c0.7-2.3,1-5.3,1-9V0h3.6v28.3c0,3.4-0.3,6.4-0.8,9c-0.6,2.6-1.5,4.9-2.9,6.7c-1.4,1.8-3.3,3.2-5.7,4.2S210,49.6,206.3,49.6z"/>
	<path d="M242.7,48.7h-3.6V0h3.6V48.7z"/>
</g>
</svg>
